<svg xmlns="http://www.w3.org/2000/svg" width="192" height="192" viewBox="0 0 192 192" version="1.1">
	<path d="M 77.812 44.341 C 27.579 60.069, 9.482 66.138, 7.632 67.876 C 5.219 70.143, 3.341 76.415, 3.898 80.348 C 4.114 81.877, 35.823 158.090, 40.088 167.330 C 41.656 170.727, 47.641 174, 52.285 174 C 54.759 174, 72.445 165.240, 119.075 140.917 C 153.959 122.722, 183.287 106.922, 184.250 105.807 C 185.213 104.691, 186 102.719, 186 101.424 C 186 97.975, 155.190 26.810, 152.805 24.750 C 151.690 23.788, 149.591 23.033, 148.139 23.073 C 146.688 23.114, 115.040 32.684, 77.812 44.341 M 119.748 45.250 C 119.517 45.938, 120.375 48.750, 121.655 51.500 C 122.934 54.250, 123.985 57.737, 123.990 59.250 C 123.998 61.514, 124.442 62, 126.500 62 C 129.723 62, 129.662 61.069, 125.826 51.750 C 122.853 44.529, 120.745 42.274, 119.748 45.250 M 131.219 69.236 C 130.201 70.462, 130.433 71.732, 132.476 76.120 C 133.853 79.079, 134.985 82.769, 134.990 84.320 C 134.998 86.670, 135.374 87.085, 137.250 86.816 C 140.218 86.391, 139.946 84.219, 135.773 75.018 C 132.985 68.872, 132.272 67.967, 131.219 69.236 M 169.786 82.547 C 169.466 82.867, 170.250 85.687, 171.527 88.814 C 172.804 91.941, 174.122 95.363, 174.457 96.417 C 174.866 97.705, 175.396 98.004, 176.073 97.327 C 176.750 96.650, 176.192 94.215, 174.372 89.909 C 171.396 82.870, 170.654 81.679, 169.786 82.547 M 63.964 95.437 C 63.159 96.228, 57.670 98.733, 51.767 101.005 C 45.864 103.276, 40.780 105.548, 40.468 106.052 C 40.156 106.557, 41.498 110.656, 43.450 115.161 C 45.403 119.666, 47 123.996, 47 124.783 C 47 125.570, 47.563 125.997, 48.250 125.732 C 59.356 121.447, 74 114.350, 74 113.253 C 74 111.350, 68 96.800, 66.577 95.250 C 65.662 94.254, 65.131 94.292, 63.964 95.437 M 110.475 109.679 C 108.138 113.245, 107.789 116.860, 109.540 119.361 C 111.013 121.464, 109.957 124.016, 107.628 123.985 C 106.976 123.976, 107.081 123.601, 107.878 123.096 C 108.636 122.616, 108.934 121.701, 108.539 121.063 C 108.076 120.314, 107.411 120.239, 106.661 120.851 C 105.902 121.471, 105.054 121.315, 104.211 120.400 C 103.158 119.257, 103.158 118.997, 104.211 118.985 C 105.123 118.974, 105.061 118.686, 104 118 C 101.476 116.369, 103.891 116.894, 106.785 118.605 C 108.278 119.489, 108.809 119.601, 107.964 118.855 C 107.119 118.110, 106.608 116.614, 106.829 115.532 C 107.145 113.982, 106.940 113.795, 105.865 114.653 C 105.114 115.253, 103.767 115.624, 102.871 115.478 C 101.691 115.286, 101.386 115.761, 101.763 117.203 C 102.226 118.970, 102.060 119.055, 100.293 117.951 C 97.988 116.511, 92.989 117.418, 93.022 119.269 C 93.034 119.946, 93.978 122.525, 95.119 125 C 96.261 127.475, 97.418 130.850, 97.691 132.500 C 97.964 134.150, 98.319 135.636, 98.479 135.801 C 99.131 136.478, 120 125.460, 120 124.439 C 120 123.248, 113.679 108.345, 112.801 107.468 C 112.510 107.176, 111.463 108.171, 110.475 109.679 M 76.410 123.990 C 75.865 124.535, 70.491 127.226, 64.467 129.970 C 58.442 132.714, 53.378 135.365, 53.213 135.861 C 52.969 136.593, 59.568 153.778, 60.481 154.787 C 60.991 155.351, 85.507 142.880, 85.857 141.879 C 86.289 140.645, 79.004 123, 78.063 123 C 77.698 123, 76.954 123.446, 76.410 123.990" stroke="none" fill="black" fill-rule="evenodd"/>
</svg>